<svg width="32" height="32" viewBox="0 0 32 32" fill="none" xmlns="http://www.w3.org/2000/svg">
<path d="M10.6667 8.66666H21.3333M10.6667 12L16 20M6.13333 12H8.53333C9.28007 12 9.65344 12 9.93865 11.8547C10.1895 11.7268 10.3935 11.5229 10.5213 11.272C10.6667 10.9868 10.6667 10.6134 10.6667 9.86666V7.46666C10.6667 6.71992 10.6667 6.34656 10.5213 6.06134C10.3935 5.81046 10.1895 5.60648 9.93865 5.47865C9.65344 5.33333 9.28007 5.33333 8.53333 5.33333H6.13333C5.3866 5.33333 5.01323 5.33333 4.72801 5.47865C4.47713 5.60648 4.27316 5.81046 4.14532 6.06134C4 6.34656 4 6.71992 4 7.46666V9.86666C4 10.6134 4 10.9868 4.14532 11.272C4.27316 11.5229 4.47713 11.7268 4.72801 11.8547C5.01323 12 5.3866 12 6.13333 12ZM18.1333 26.6667H20.5333C21.2801 26.6667 21.6534 26.6667 21.9387 26.5213C22.1895 26.3935 22.3935 26.1895 22.5213 25.9387C22.6667 25.6534 22.6667 25.2801 22.6667 24.5333V22.1333C22.6667 21.3866 22.6667 21.0132 22.5213 20.728C22.3935 20.4771 22.1895 20.2732 21.9387 20.1453C21.6534 20 21.2801 20 20.5333 20H18.1333C17.3866 20 17.0132 20 16.728 20.1453C16.4771 20.2732 16.2732 20.4771 16.1453 20.728C16 21.0132 16 21.3866 16 22.1333V24.5333C16 25.2801 16 25.6534 16.1453 25.9387C16.2732 26.1895 16.4771 26.3935 16.728 26.5213C17.0132 26.6667 17.3866 26.6667 18.1333 26.6667ZM23.4667 12H25.8667C26.6134 12 26.9868 12 27.272 11.8547C27.5229 11.7268 27.7268 11.5229 27.8547 11.272C28 10.9868 28 10.6134 28 9.86666V7.46666C28 6.71992 28 6.34656 27.8547 6.06134C27.7268 5.81046 27.5229 5.60648 27.272 5.47865C26.9868 5.33333 26.6134 5.33333 25.8667 5.33333H23.4667C22.7199 5.33333 22.3466 5.33333 22.0613 5.47865C21.8105 5.60648 21.6065 5.81046 21.4787 6.06134C21.3333 6.34656 21.3333 6.71992 21.3333 7.46666V9.86666C21.3333 10.6134 21.3333 10.9868 21.4787 11.272C21.6065 11.5229 21.8105 11.7268 22.0613 11.8547C22.3466 12 22.7199 12 23.4667 12Z" stroke="#0E5DE1" stroke-width="2" stroke-linecap="round" stroke-linejoin="round"/>
</svg>
