<svg width="32" height="32" viewBox="0 0 32 32" fill="none" xmlns="http://www.w3.org/2000/svg">
<path d="M12 16L14.6667 18.6667L20 13.3333M26.6667 16C26.6667 21.9482 19.3868 26.2583 16.8553 27.5773C16.5815 27.72 16.4446 27.7913 16.2546 27.8282C16.1067 27.857 15.8934 27.857 15.7454 27.8282C15.5555 27.7913 15.4186 27.72 15.1448 27.5773C12.6133 26.2583 5.33337 21.9482 5.33337 16V10.9568C5.33337 9.89079 5.33337 9.35778 5.50772 8.89961C5.66174 8.49485 5.91202 8.1337 6.23692 7.84737C6.6047 7.52325 7.10377 7.3361 8.10191 6.9618L15.251 4.2809C15.5282 4.17695 15.6668 4.12498 15.8094 4.10437C15.9358 4.0861 16.0643 4.0861 16.1907 4.10437C16.3333 4.12498 16.4719 4.17695 16.7491 4.2809L23.8982 6.9618C24.8963 7.3361 25.3954 7.52325 25.7632 7.84737C26.0881 8.1337 26.3383 8.49485 26.4924 8.89961C26.6667 9.35778 26.6667 9.89079 26.6667 10.9568V16Z" stroke="#0E5DE1" stroke-width="2" stroke-linecap="round" stroke-linejoin="round"/>
</svg>
