<svg width="32" height="32" viewBox="0 0 32 32" fill="none" xmlns="http://www.w3.org/2000/svg">
<path d="M27.4 5.33333H10.4C8.15979 5.33333 7.03969 5.33333 6.18404 5.7693C5.43139 6.1528 4.81947 6.76472 4.43597 7.51737C4 8.37301 4 9.49312 4 11.7333V20.2667C4 22.5069 4 23.627 4.43597 24.4826C4.81947 25.2353 5.43139 25.8472 6.18404 26.2307C7.03969 26.6667 8.15979 26.6667 10.4 26.6667H21.6C23.8402 26.6667 24.9603 26.6667 25.816 26.2307C26.5686 25.8472 27.1805 25.2353 27.564 24.4826C28 23.627 28 22.5069 28 20.2667V17.0667C28 14.8265 28 13.7063 27.564 12.8507C27.1805 12.0981 26.5686 11.4861 25.816 11.1026C24.9603 10.6667 23.8402 10.6667 21.6 10.6667H8.8M21.9997 18.8667H22.0117M22.5997 18.8667C22.5997 19.198 22.3311 19.4667 21.9997 19.4667C21.6684 19.4667 21.3997 19.198 21.3997 18.8667C21.3997 18.5353 21.6684 18.2667 21.9997 18.2667C22.3311 18.2667 22.5997 18.5353 22.5997 18.8667Z" stroke="#0E5DE1" stroke-width="2" stroke-linecap="round" stroke-linejoin="round"/>
</svg>
