<svg width="32" height="32" viewBox="0 0 32 32" fill="none" xmlns="http://www.w3.org/2000/svg">
<path d="M13.3333 10.6667H18.6667C20.1394 10.6667 21.3333 11.8606 21.3333 13.3333C21.3333 14.8061 20.1394 16 18.6667 16M13.3333 10.6667V16M13.3333 10.6667H10.6667M13.3333 10.6667V8M18.6667 16H13.3333M18.6667 16C20.1394 16 21.3333 17.1939 21.3333 18.6667C21.3333 20.1394 20.1394 21.3333 18.6667 21.3333H13.3333M13.3333 16V21.3333M13.3333 21.3333H10.6667M13.3333 21.3333V24M17.3333 10.6667V8M17.3333 24V21.3333M28 16C28 22.6274 22.6274 28 16 28C9.37258 28 4 22.6274 4 16C4 9.37258 9.37258 4 16 4C22.6274 4 28 9.37258 28 16Z" stroke="#0E5DE1" stroke-width="2" stroke-linecap="round" stroke-linejoin="round"/>
</svg>
