<svg width="32" height="32" viewBox="0 0 32 32" fill="none" xmlns="http://www.w3.org/2000/svg">
<path d="M4 16H28M12 16V8M12 8C10.6667 6.81481 8 4 8 4M12 8C14 9.77778 18 9.77778 20 8M8 16V4M8 4C8 4 5.33333 7.33333 4 8M16 16V9.33333M20 16V8M20 8C21.3333 6.81481 24 4 24 4M24 16V4M24 4C24 4 26.6667 7.33333 28 8M4 21.3333C4.28571 21.3333 4.42856 21.3333 4.54921 21.3406C6.56818 21.4628 8.17827 23.0728 8.30039 25.0918C8.30769 25.2125 8.30769 25.3553 8.30769 25.641V28H12C12 24 12.5714 21.3333 16 21.3333C19.4286 21.3333 20 24 20 28H23.6923V25.641C23.6923 25.3553 23.6923 25.2125 23.6996 25.0918C23.8217 23.0728 25.4318 21.4628 27.4508 21.3406C27.5714 21.3333 27.7143 21.3333 28 21.3333" stroke="#0E5DE1" stroke-width="2" stroke-linecap="round" stroke-linejoin="round"/>
</svg>
