<svg width="32" height="32" viewBox="0 0 32 32" fill="none" xmlns="http://www.w3.org/2000/svg">
<path d="M6.66667 22.3333H14.6667V20.3333H6.66667V22.3333ZM14.6667 25.6667H6.66667V27.6667H14.6667V25.6667ZM6.66667 25.6667C5.74619 25.6667 5 24.9205 5 24H3C3 26.025 4.64162 27.6667 6.66667 27.6667V25.6667ZM16.3333 24C16.3333 24.9205 15.5871 25.6667 14.6667 25.6667V27.6667C16.6917 27.6667 18.3333 26.025 18.3333 24H16.3333ZM14.6667 22.3333C15.5871 22.3333 16.3333 23.0795 16.3333 24H18.3333C18.3333 21.975 16.6917 20.3333 14.6667 20.3333V22.3333ZM6.66667 20.3333C4.64162 20.3333 3 21.975 3 24H5C5 23.0795 5.74619 22.3333 6.66667 22.3333V20.3333ZM14.6667 22.3333H25.3333V20.3333H14.6667V22.3333ZM25.3333 25.6667H14.6667V27.6667H25.3333V25.6667ZM27 24C27 24.9205 26.2538 25.6667 25.3333 25.6667V27.6667C27.3584 27.6667 29 26.025 29 24H27ZM29 24C29 21.975 27.3584 20.3333 25.3333 20.3333V22.3333C26.2538 22.3333 27 23.0795 27 24H29ZM14.6667 17H25.3333V15H14.6667V17ZM27 18.6667C27 19.5871 26.2538 20.3333 25.3333 20.3333V22.3333C27.3584 22.3333 29 20.6917 29 18.6667H27ZM29 18.6667C29 16.6416 27.3584 15 25.3333 15V17C26.2538 17 27 17.7462 27 18.6667H29ZM14.6667 11.6667H25.3333V9.66667H14.6667V11.6667ZM27 13.3333C27 14.2538 26.2538 15 25.3333 15V17C27.3584 17 29 15.3584 29 13.3333H27ZM29 13.3333C29 11.3083 27.3584 9.66667 25.3333 9.66667V11.6667C26.2538 11.6667 27 12.4129 27 13.3333H29ZM6.66667 17H14.6667V15H6.66667V17ZM6.66667 20.3333C5.74619 20.3333 5 19.5871 5 18.6667H3C3 20.6917 4.64162 22.3333 6.66667 22.3333V20.3333ZM16.3333 18.6667C16.3333 19.5871 15.5871 20.3333 14.6667 20.3333V22.3333C16.6917 22.3333 18.3333 20.6917 18.3333 18.6667H16.3333ZM14.6667 17C15.5871 17 16.3333 17.7462 16.3333 18.6667H18.3333C18.3333 16.6416 16.6917 15 14.6667 15V17ZM6.66667 15C4.64162 15 3 16.6416 3 18.6667H5C5 17.7462 5.74619 17 6.66667 17V15ZM6.66667 11.6667H14.6667V9.66667H6.66667V11.6667ZM6.66667 15C5.74619 15 5 14.2538 5 13.3333H3C3 15.3584 4.64162 17 6.66667 17V15ZM16.3333 13.3333C16.3333 14.2538 15.5871 15 14.6667 15V17C16.6917 17 18.3333 15.3584 18.3333 13.3333H16.3333ZM14.6667 11.6667C15.5871 11.6667 16.3333 12.4129 16.3333 13.3333H18.3333C18.3333 11.3083 16.6917 9.66667 14.6667 9.66667V11.6667ZM6.66667 9.66667C4.64162 9.66667 3 11.3083 3 13.3333H5C5 12.4129 5.74619 11.6667 6.66667 11.6667V9.66667ZM6.66667 6.33333H14.6667V4.33333H6.66667V6.33333ZM6.66667 9.66667C5.74619 9.66667 5 8.92048 5 8H3C3 10.025 4.64162 11.6667 6.66667 11.6667V9.66667ZM16.3333 8C16.3333 8.92048 15.5871 9.66667 14.6667 9.66667V11.6667C16.6917 11.6667 18.3333 10.025 18.3333 8H16.3333ZM14.6667 6.33333C15.5871 6.33333 16.3333 7.07953 16.3333 8H18.3333C18.3333 5.97496 16.6917 4.33333 14.6667 4.33333V6.33333ZM6.66667 4.33333C4.64162 4.33333 3 5.97496 3 8H5C5 7.07953 5.74619 6.33333 6.66667 6.33333V4.33333Z" fill="#0E5DE1"/>
</svg>
