<svg width="32" height="32" viewBox="0 0 32 32" fill="none" xmlns="http://www.w3.org/2000/svg">
<path d="M18.6666 8H13.3333M20 22.6667C19.6218 21.1452 17.9746 20 16 20C14.0253 20 12.3781 21.1452 12 22.6667M16 14.6667H16.0133M10.9333 28H21.0666C22.5601 28 23.3068 28 23.8773 27.7094C24.379 27.4537 24.787 27.0457 25.0426 26.544C25.3333 25.9735 25.3333 25.2268 25.3333 23.7333V8.26667C25.3333 6.77319 25.3333 6.02646 25.0426 5.45603C24.787 4.95426 24.379 4.54631 23.8773 4.29065C23.3068 4 22.5601 4 21.0666 4H10.9333C9.43982 4 8.69308 4 8.12265 4.29065C7.62089 4.54631 7.21294 4.95426 6.95728 5.45603C6.66663 6.02646 6.66663 6.77319 6.66663 8.26667V23.7333C6.66663 25.2268 6.66663 25.9735 6.95728 26.544C7.21294 27.0457 7.62089 27.4537 8.12265 27.7094C8.69308 28 9.43982 28 10.9333 28ZM17.3333 14.6667C17.3333 15.403 16.7363 16 16 16C15.2636 16 14.6666 15.403 14.6666 14.6667C14.6666 13.9303 15.2636 13.3333 16 13.3333C16.7363 13.3333 17.3333 13.9303 17.3333 14.6667Z" stroke="#0E5DE1" stroke-width="2" stroke-linecap="round" stroke-linejoin="round"/>
</svg>
